<svg width="20" height="20" viewBox="0 0 20 20" fill="none" xmlns="http://www.w3.org/2000/svg">
<g clip-path="url(#clip0_389_657)">
<path d="M2.91667 19.9993H15.4167C16.1914 19.9971 16.9336 19.6877 17.4805 19.1388C18.0273 18.59 18.334 17.8466 18.3333 17.0718V10.791C18.3333 10.57 18.2455 10.358 18.0893 10.2018C17.933 10.0455 17.721 9.95768 17.5 9.95768C17.279 9.95768 17.067 10.0455 16.9107 10.2018C16.7545 10.358 16.6667 10.57 16.6667 10.791V17.0718C16.6678 17.4047 16.5368 17.7244 16.3024 17.9608C16.0681 18.1972 15.7495 18.3309 15.4167 18.3327H2.91667C2.58381 18.3309 2.26525 18.1972 2.0309 17.9608C1.79655 17.7244 1.66556 17.4047 1.66667 17.0718V4.59352C1.66556 4.26066 1.79655 3.94096 2.0309 3.70458C2.26525 3.46819 2.58381 3.33445 2.91667 3.33268H9.16667C9.38768 3.33268 9.59964 3.24488 9.75592 3.0886C9.9122 2.93232 10 2.72036 10 2.49935C10 2.27834 9.9122 2.06637 9.75592 1.91009C9.59964 1.75381 9.38768 1.66602 9.16667 1.66602H2.91667C2.14192 1.66822 1.3997 1.97771 0.852882 2.52655C0.306068 3.0754 -0.000664243 3.81877 1.08009e-06 4.59352V17.0718C-0.000664243 17.8466 0.306068 18.59 0.852882 19.1388C1.3997 19.6877 2.14192 19.9971 2.91667 19.9993V19.9993Z" fill="#BEBEBE"/>
<path d="M7.87924 8.78764L7.22174 11.7993C7.19198 11.9359 7.19706 12.0778 7.23653 12.2119C7.27599 12.3461 7.34857 12.4681 7.44757 12.5668C7.54793 12.663 7.67002 12.7337 7.80348 12.7727C7.93694 12.8117 8.07784 12.818 8.21424 12.791L11.2192 12.1318C11.3753 12.0975 11.5182 12.0192 11.6309 11.906L19.2259 4.31097C19.4581 4.07882 19.6423 3.80321 19.7679 3.49986C19.8936 3.19652 19.9583 2.8714 19.9583 2.54306C19.9583 2.21472 19.8936 1.88959 19.7679 1.58625C19.6423 1.28291 19.4581 1.00729 19.2259 0.775141C18.7499 0.320255 18.1168 0.0664063 17.4584 0.0664062C16.8 0.0664062 16.1669 0.320255 15.6909 0.775141L8.10757 8.37764C7.99375 8.48961 7.9145 8.63192 7.87924 8.78764ZM16.8692 1.95431C17.0278 1.80243 17.2389 1.71764 17.4584 1.71764C17.678 1.71764 17.889 1.80243 18.0476 1.95431C18.2017 2.1115 18.2881 2.32289 18.2881 2.54306C18.2881 2.76323 18.2017 2.97462 18.0476 3.13181L17.4584 3.72097L16.2801 2.54264L16.8692 1.95431ZM9.45257 9.38264L15.0976 3.72347L16.2642 4.89597L10.6167 10.5568L9.1209 10.8851L9.45257 9.38264Z" fill="#BEBEBE"/>
</g>
<defs>
<clipPath id="clip0_389_657">
<rect width="20" height="20" fill="white"/>
</clipPath>
</defs>
</svg>
