<svg width="17" height="17" viewBox="0 0 17 17" fill="none" xmlns="http://www.w3.org/2000/svg">
<path d="M7.24348 1.1087C7.24348 0.49638 7.73986 0 8.35217 0C8.96449 0 9.46087 0.49638 9.46087 1.1087V15.8913C9.46087 16.5036 8.96449 17 8.35217 17C7.73986 17 7.24348 16.5036 7.24348 15.8913V1.1087Z" fill="#0167FF"/>
<path d="M1.1087 9.6087C0.49638 9.6087 2.67652e-08 9.11232 0 8.5C-2.67652e-08 7.88769 0.49638 7.39131 1.1087 7.39131L15.8913 7.3913C16.5036 7.3913 17 7.88769 17 8.5C17 9.11232 16.5036 9.6087 15.8913 9.6087L1.1087 9.6087Z" fill="#0167FF"/>
</svg>
