<svg width="30px" height="23px" viewBox="0 0 30 23" fill="none" xmlns="http://www.w3.org/2000/svg">
<path fill-rule="evenodd" clip-rule="evenodd" d="M0 1.42857C0 0.639593 0.639593 0 1.42857 0H28.5714C29.3604 0 30 0.639593 30 1.42857C30 2.21755 29.3604 2.85714 28.5714 2.85714H1.42857C0.639593 2.85714 0 2.21755 0 1.42857ZM0 11.4286C0 10.6396 0.639593 9.99999 1.42857 9.99999H28.5714C29.3604 9.99999 30 10.6396 30 11.4286C30 12.2175 29.3604 12.8571 28.5714 12.8571H1.42857C0.639593 12.8571 0 12.2175 0 11.4286ZM1.42857 20C0.639593 20 0 20.6396 0 21.4286C0 22.2176 0.639593 22.8572 1.42857 22.8572H28.5714C29.3604 22.8572 30 22.2176 30 21.4286C30 20.6396 29.3604 20 28.5714 20H1.42857Z" fill="#002B5C"/>
</svg>
